<svg xmlns="http://www.w3.org/2000/svg">
    <symbol id="social-facebook" viewBox="0 0 10 18">
        <path
            d="M6.22531 17.3774V9.656H8.8174L9.20492 6.64732H6.22531V4.72586C6.22531 3.85501 6.46751 3.26081 7.71619 3.26081L9.30933 3.25973V0.568605C9.03376 0.532006 8.08756 0.450195 6.98743 0.450195C4.69029 0.450195 3.11759 1.85281 3.11759 4.42768V6.64732H0.519043V9.656H3.11759V17.3774H6.22531Z"
        />
    </symbol>

    <symbol id="social-vkontakte" viewBox="0 0 18 11">
        <path
            d="M14.6935 5.07869C14.6935 5.07869 17.0241 1.79121 17.2555 0.710457C17.333 0.325088 17.1629 0.108721 16.7614 0.108721C16.7614 0.108721 15.4191 0.108721 14.7398 0.108721C14.277 0.108721 14.1069 0.308942 13.968 0.602813C13.968 0.602813 12.8743 2.93225 11.5449 4.39945C11.1176 4.87417 10.9012 5.01626 10.6655 5.01626C10.4749 5.01626 10.3877 4.85802 10.3877 4.42959V0.679241C10.3877 0.155009 10.3264 0 9.89365 0H6.65139C6.40488 0 6.24987 0.143168 6.24987 0.339082C6.24987 0.833173 7.00661 0.945123 7.00661 2.28423V5.04747C7.00661 5.60292 6.9754 5.81929 6.71382 5.81929C6.01951 5.81929 4.36824 3.42742 3.44141 0.710457C3.25626 0.155009 3.05497 0 2.53073 0H0.509161C0.216367 0 0 0.200219 0 0.49409C0 1.03447 0.632952 3.53506 3.1174 6.8839C4.78482 9.13691 6.97647 10.3565 8.95176 10.3565C10.1552 10.3565 10.4491 10.1563 10.4491 9.64607V7.91729C10.4491 7.48563 10.6192 7.29941 10.8657 7.29941C11.1434 7.29941 11.6343 7.38875 12.7796 8.51903C14.1381 9.81507 14.2307 10.3555 14.9713 10.3555H17.2404C17.4719 10.3555 17.6882 10.2478 17.6882 9.86136C17.6882 9.3522 17.0241 8.44152 16.0057 7.36076C15.5891 6.80532 14.9099 6.20358 14.6935 5.92586C14.3846 5.604 14.4772 5.41885 14.6935 5.07869Z"
        />
    </symbol>

    <symbol id="social-instagram" viewBox="0 0 17 17">
        <path
            d="M8.46413 1.52532C10.7236 1.52532 10.9916 1.53394 11.884 1.57484C12.7096 1.61252 13.1574 1.7503 13.4556 1.86656C13.8507 2.02049 14.1327 2.20348 14.4287 2.49951C14.7248 2.79553 14.9088 3.07757 15.0617 3.47263C15.1779 3.7708 15.3157 4.21861 15.3534 5.04425C15.3943 5.93663 15.4029 6.20465 15.4029 8.46412C15.4029 10.7236 15.3943 10.9916 15.3534 11.884C15.3157 12.7096 15.1779 13.1574 15.0617 13.4556C14.9078 13.8507 14.7248 14.1327 14.4287 14.4287C14.1327 14.7248 13.8507 14.9088 13.4556 15.0617C13.1574 15.178 12.7096 15.3157 11.884 15.3534C10.9916 15.3943 10.7236 15.4029 8.46413 15.4029C6.20466 15.4029 5.93662 15.3943 5.04424 15.3534C4.21861 15.3157 3.7708 15.178 3.47263 15.0617C3.07757 14.9078 2.79554 14.7248 2.49952 14.4287C2.20349 14.1327 2.01942 13.8507 1.86656 13.4556C1.75031 13.1574 1.61252 12.7096 1.57485 11.884C1.53394 10.9916 1.52533 10.7236 1.52533 8.46412C1.52533 6.20465 1.53394 5.93663 1.57485 5.04425C1.61252 4.21861 1.75031 3.7708 1.86656 3.47263C2.0205 3.07757 2.20349 2.79553 2.49952 2.49951C2.79554 2.20348 3.07757 2.01941 3.47263 1.86656C3.7708 1.7503 4.21861 1.61252 5.04424 1.57484C5.93662 1.53394 6.20466 1.52532 8.46413 1.52532ZM8.46413 0C6.16591 0 5.87742 0.0096849 4.97428 0.05059C4.07329 0.0914951 3.45863 0.234669 2.91933 0.4435C2.36281 0.659867 1.89025 0.949429 1.41984 1.41984C0.949429 1.89025 0.659864 2.36281 0.443497 2.91934C0.234666 3.45756 0.0914982 4.07329 0.0505931 4.97428C0.00968798 5.87742 0 6.16482 0 8.46412C0 10.7623 0.00968798 11.0508 0.0505931 11.954C0.0914982 12.855 0.234666 13.4696 0.443497 14.0089C0.659864 14.5654 0.949429 15.038 1.41984 15.5084C1.89025 15.9788 2.36281 16.2684 2.91933 16.4848C3.45756 16.6936 4.07329 16.8368 4.97428 16.8777C5.87742 16.9186 6.16483 16.9283 8.46413 16.9283C10.7634 16.9283 11.0508 16.9186 11.954 16.8777C12.855 16.8368 13.4696 16.6936 14.0089 16.4848C14.5654 16.2684 15.038 15.9788 15.5084 15.5084C15.9788 15.038 16.2684 14.5654 16.4848 14.0089C16.6936 13.4707 16.8368 12.855 16.8777 11.954C16.9186 11.0508 16.9283 10.7634 16.9283 8.46412C16.9283 6.1659 16.9186 5.87742 16.8777 4.97428C16.8368 4.07329 16.6936 3.45864 16.4848 2.91934C16.2684 2.36281 15.9788 1.89025 15.5084 1.41984C15.038 0.949429 14.5654 0.659867 14.0089 0.4435C13.4707 0.234669 12.855 0.0914951 11.954 0.05059C11.0508 0.0096849 10.7623 0 8.46413 0Z"
        />
        <path
            d="M8.46402 4.11768C6.06353 4.11768 4.11731 6.0639 4.11731 8.46331C4.11731 10.8638 6.06353 12.81 8.46402 12.81C10.8645 12.81 12.8107 10.8638 12.8107 8.46331C12.8107 6.0639 10.8645 4.11768 8.46402 4.11768ZM8.46402 11.2847C6.90639 11.2847 5.64264 10.022 5.64264 8.46331C5.64264 6.90568 6.90532 5.64193 8.46402 5.64193C10.0216 5.64193 11.2854 6.90461 11.2854 8.46331C11.2854 10.022 10.0216 11.2847 8.46402 11.2847Z"
        />
        <path
            d="M12.9819 4.96036C13.5425 4.96036 13.997 4.50588 13.997 3.94526C13.997 3.38464 13.5425 2.93018 12.9819 2.93018C12.4213 2.93018 11.9668 3.38464 11.9668 3.94526C11.9668 4.50588 12.4213 4.96036 12.9819 4.96036Z"
        />
    </symbol>

    <symbol id="social-youtube" viewBox="0 0 25 17">
        <path
            d="M23.8272 3.65132C23.8272 3.65132 23.5915 1.99251 22.8703 1.26268C21.9553 0.30464 20.9294 0.299251 20.459 0.243275C17.0908 -2.22961e-06 12.039 0 12.039 0H12.0283C12.0283 0 6.97647 -2.22961e-06 3.60826 0.243275C3.13785 0.299251 2.11199 0.30464 1.19701 1.26268C0.47579 1.99359 0.241125 3.65132 0.241125 3.65132C0.241125 3.65132 0 5.59862 0 7.54699V9.37265C0 11.3199 0.241125 13.2673 0.241125 13.2673C0.241125 13.2673 0.47579 14.9261 1.19701 15.6559C2.11307 16.615 3.31547 16.5838 3.85046 16.685C5.77623 16.8701 12.0336 16.9272 12.0336 16.9272C12.0336 16.9272 17.0908 16.9196 20.459 16.6764C20.9294 16.6204 21.9553 16.615 22.8703 15.657C23.5915 14.9261 23.8272 13.2683 23.8272 13.2683C23.8272 13.2683 24.0673 11.321 24.0673 9.37373V7.54808C24.0673 5.59863 23.8272 3.65132 23.8272 3.65132ZM9.54919 11.5848L9.54811 4.82251L16.0509 8.21547L9.54919 11.5848Z"
        />
    </symbol>

    <symbol id="design-lab" viewBox="0 0 89 16">

        <path fill-rule="evenodd" clip-rule="evenodd"
            d="M85.3087 13.0226C84.0169 13.0226 83.0778 12.4042 82.6409 11.4678V12.8586H79.3367V0H82.6409V5.33401C83.1278 4.515 83.9998 3.82974 85.3252 3.82974C87.3212 3.82974 88.9986 5.31702 88.9986 8.37653V8.50975C88.9986 11.5693 87.3046 13.0231 85.3087 13.0231V13.0226ZM85.6437 8.34255C85.6437 6.9386 85.0737 6.26979 84.0835 6.26979C83.1102 6.26979 82.5568 7.00548 82.5568 8.34255V8.47576C82.5568 9.82982 83.0937 10.5156 84.1005 10.5156C85.0897 10.5156 85.6432 9.81337 85.6432 8.47576V8.34255H85.6437ZM74.7852 11.8023C74.416 12.4036 73.6447 13.022 72.2181 13.022C70.6419 13.022 69.2324 12.2529 69.2324 10.3808C69.2324 8.325 70.9098 7.52298 73.9456 7.52298H74.701V7.37223C74.701 6.63654 74.5662 6.10149 73.6771 6.10149C72.9223 6.10149 72.688 6.58665 72.6373 7.03782H69.5509C69.6852 4.89819 71.3621 3.81165 73.8791 3.81165C76.4285 3.81165 77.9712 4.8483 77.9712 7.15459V12.8044H74.7846V11.8017L74.7852 11.8023ZM74.7015 9.29477H73.9968C72.8888 9.29477 72.4866 9.51241 72.4866 10.1308C72.4866 10.5485 72.8051 10.8155 73.4098 10.8155C74.164 10.8155 74.7015 10.3983 74.7015 9.74649V9.29477ZM60.7891 0.853551H64.2193V9.87971H68.5265V12.8586H60.7891V0.853551Z"
            fill="#C20012" />
        <path fill-rule="evenodd" clip-rule="evenodd"
            d="M51.9386 12.8108V7.74264C51.9386 6.85675 51.62 6.40503 50.8305 6.40503C50.0086 6.40503 49.5228 6.89019 49.5228 7.92629V12.8113H46.2174V4.204H49.5228V5.41991C50.0086 4.50003 50.9483 3.78188 52.4244 3.78188C54.0858 3.78188 55.2423 4.83498 55.2423 7.00805V12.8119H51.9386V12.8108ZM39.8069 15.9997C36.7711 15.9997 35.3451 14.7624 35.1102 12.6902H38.3815C38.4992 13.2252 38.8012 13.7263 39.824 13.7263C41.0822 13.7263 41.5014 12.9906 41.5014 12.0559V10.7018C41.0657 11.5373 40.1425 12.239 38.8343 12.239C36.8383 12.239 35.1608 10.8016 35.1608 8.09404V7.96028C35.1608 5.33604 36.8212 3.76434 38.8172 3.76434C40.1926 3.76434 41.0145 4.33282 41.5014 5.21927V4.204H44.8063V12.0049C44.8063 14.6127 43.0777 16.0002 39.8064 16.0002L39.8069 15.9997ZM41.6021 7.97673C41.6021 6.90609 41.0487 6.20439 40.0595 6.20439C39.0527 6.20439 38.5157 6.89019 38.5157 7.99317V8.12748C38.5157 9.19648 39.0527 9.89872 40.0595 9.89872C41.0322 9.89872 41.6021 9.19648 41.6021 8.09404V7.97727V7.97673ZM32.5013 3.36305C31.4775 3.36305 30.7062 2.66081 30.7062 1.70858C30.7062 0.738809 31.4775 0.0371094 32.5013 0.0371094C33.507 0.0371094 34.2789 0.739357 34.2789 1.70858C34.2789 2.66081 33.507 3.36305 32.5013 3.36305ZM26.1877 7.10728C28.7206 7.40824 29.8952 8.00962 29.8952 9.89872C29.8952 12.0559 28.2513 12.9741 25.7696 12.9741C23.2025 12.9741 21.6923 12.2171 21.6428 10.2446H24.6621C24.7633 10.8131 24.9977 10.852 25.7525 10.852C26.3907 10.852 26.6751 10.601 26.6751 10.2337C26.6751 9.84884 26.306 9.64874 25.1314 9.49799C22.7668 9.23047 21.7264 8.59455 21.7264 6.72354C21.7264 4.71711 23.488 3.76379 25.6348 3.76379C27.9168 3.76379 29.443 4.51647 29.6444 6.65611H26.6751C26.5745 6.1386 26.2889 5.83709 25.6848 5.83709C25.0813 5.83709 24.8128 6.10407 24.8128 6.43847C24.8128 6.83921 25.215 7.00696 26.1882 7.10673L26.1877 7.10728ZM16.6611 10.7353C17.5832 10.7353 17.9353 10.596 18.0365 10.0944H21.1229C20.8544 12.1009 19.3283 12.9747 16.5439 12.9747C13.7419 12.9747 11.6788 11.3865 11.6788 8.49478V8.36157C11.6788 5.51914 13.8597 3.76434 16.5439 3.76434C19.0097 3.76434 21.1064 5.16938 21.1064 8.31113V9.1137H15.0178C15.1014 10.1668 15.7225 10.7353 16.6616 10.7353H16.6611ZM17.9193 7.39179C17.8858 6.45601 17.4324 5.88753 16.5439 5.88753C15.7385 5.88753 15.168 6.40558 15.0337 7.39179H17.9193ZM4.57899 12.8113H0V0.778827H4.57899C8.87356 0.778827 11.0544 2.845 11.0544 6.63911V6.75643C11.0544 10.5675 8.80589 12.8113 4.57899 12.8113ZM7.09488 6.70654C7.09488 4.51702 5.94945 3.71445 4.10421 3.71445H3.48307V9.84939H4.12126C5.98246 9.84939 7.09488 8.93005 7.09488 6.8403V6.70709V6.70654ZM34.1452 12.8113H30.8575V4.204H34.1452V12.8113Z"
            fill="#101014" />
    </symbol>

    <symbol id="array-left" viewBox="0 0 9 14">
        <path d="M7.5459 1L1.4545 7.09118L7.5459 13" stroke-width="2" stroke-linecap="round" stroke-linejoin="round" fill="none"/>
    </symbol>

        <symbol id="array-right" viewBox="0 0 9 14">
            <path d="M1.4541 1L7.5455 7.09118L1.4541 13"  stroke-width="2" stroke-linecap="round" stroke-linejoin="round" fill="none"/>
    </symbol>
</svg>